# Blender 3.4.1
# www.blender.org
mtllib bleachers.mtl
o Cube.016
v 1.936360 -1.063640 1.000000
v 1.936360 -1.063640 3.000000
v 1.936360 -2.063640 3.000000
v 1.936360 -2.063640 1.000000
v 2.936360 -2.063640 1.000000
v 2.936360 -2.063640 3.000000
v 2.910000 -3.000000 1.000000
v 2.910000 -3.000000 3.000000
v 0.000000 -1.090000 3.000000
v 0.000000 -1.090000 1.000000
v 2.000000 -1.000000 1.000000
v 2.000000 -1.000000 3.000000
v 2.000000 -2.000000 3.000000
v 2.000000 -2.000000 1.000000
v 3.000000 -2.000000 1.000000
v 3.000000 -2.000000 3.000000
v 3.000000 -3.000000 1.000000
v 3.000000 -3.000000 3.000000
v 0.000000 -1.000000 3.000000
v 0.000000 -1.000000 1.000000
vn -1.0000 -0.0000 -0.0000
vn -0.9996 0.0281 -0.0000
vn -0.0000 -1.0000 -0.0000
vn 0.0136 -0.9999 -0.0000
vn 1.0000 -0.0000 -0.0000
vn -0.0000 1.0000 -0.0000
vn -0.0000 -0.0000 -1.0000
vn -0.0000 -0.0000 1.0000
vt 0.630046 0.304953
vt 0.829140 0.307343
vt 0.315270 0.304953
vt 0.644245 0.260442
vt 0.315270 0.462341
vt 0.775822 0.346804
vt 0.630046 0.462341
vt 0.960717 0.220981
vt 0.630046 0.619729
vt 0.874355 0.089404
vt 0.315270 0.619729
vt 0.689461 0.478381
vt 0.630046 0.767159
vt 0.999835 0.012007
vt 0.315270 0.767159
vt 0.814941 0.555779
vt 0.315270 0.000165
vt 0.814941 0.007937
vt 0.000165 0.801270
vt 0.630046 0.000165
vt 0.999835 0.559848
vt 0.314941 0.801270
vt 0.314941 0.472329
vt 0.815270 0.304466
vt 0.000165 0.472329
vt 0.630375 0.263320
vt 0.000165 0.314941
vt 0.761953 0.349681
vt 0.314941 0.314941
vt 0.946847 0.218104
vt 0.314941 0.157553
vt 0.860486 0.086526
vt 0.000165 0.157553
vt 0.675591 0.481259
vt 0.314941 0.000165
vt 0.630046 0.781324
vt 0.992063 0.000165
vt 0.000165 0.000165
vt 0.315270 0.781324
vt 0.807168 0.567621
vt 0.803099 0.000165
vt 0.000165 0.787105
vt 0.987993 0.567621
vt 0.314941 0.787105
s 0
usemtl Material
f 2/3/1 1/1/1 4/7/1 3/5/1
f 6/11/2 5/9/2 7/13/2 8/15/2
f 3/5/3 4/7/3 5/9/3 6/11/3
f 1/1/4 2/3/4 9/17/4 10/20/4
f 12/25/5 13/27/5 14/29/5 11/23/5
f 16/33/5 18/38/5 17/35/5 15/31/5
f 13/27/6 16/33/6 15/31/6 14/29/6
f 11/23/6 20/44/6 19/42/6 12/25/6
f 1/2/7 10/21/7 20/43/7 11/24/7
f 2/4/8 3/6/8 13/28/8 12/26/8
f 4/8/7 1/2/7 11/24/7 14/30/7
f 8/15/3 7/13/3 17/36/3 18/39/3
f 6/12/8 8/16/8 18/40/8 16/34/8
f 7/14/7 5/10/7 15/32/7 17/37/7
f 3/6/8 6/12/8 16/34/8 13/28/8
f 5/10/7 4/8/7 14/30/7 15/32/7
f 9/18/8 2/4/8 12/26/8 19/41/8
f 10/22/1 9/19/1 19/42/1 20/44/1
