# Blender 3.4.1
# www.blender.org
mtllib center.mtl
o Cube.001
v 1.105907 -0.736566 7.000000
v 1.105907 -0.736566 9.000000
v 3.224012 -1.905689 7.000000
v 3.224012 -1.905689 9.000000
v 3.224012 -0.978618 7.000000
v 2.981960 -0.736566 7.000000
v 3.191583 -0.857592 7.000000
v 3.102986 -0.768995 7.000000
v 2.981960 -0.736566 9.000000
v 3.224012 -0.978618 9.000000
v 3.102986 -0.768995 9.000000
v 3.191583 -0.857592 9.000000
v 3.000000 -3.000000 9.000000
v 3.000000 -3.000000 7.000000
v 1.000000 -1.000000 9.000000
v 1.000000 -1.000000 7.000000
v 2.936360 -1.063640 9.000000
v 2.910000 -3.000000 9.000000
v 2.948039 -1.051962 7.007808
v 2.919502 -3.000000 6.996096
v 1.000000 -1.090000 9.000000
v 1.000000 -1.080498 6.996096
v 3.016785 -2.214589 9.000000
v 3.016785 -2.214589 7.000000
v 2.923180 -2.216773 9.000000
v 2.933770 -2.210934 7.001952
vn 1.0000 -0.0000 -0.0000
vn 0.9914 0.1305 -0.0000
vn 0.1305 0.9914 -0.0000
vn 0.5000 0.8660 -0.0000
vn 0.8660 0.5000 -0.0000
vn -0.0000 1.0000 -0.0000
vn 0.0141 -0.9999 -0.0053
vn -0.9999 0.0119 -0.0055
vn -1.0000 -0.0000 -0.0000
vn 0.9998 -0.0214 -0.0000
vn -0.0000 -1.0000 -0.0000
vn -0.9278 0.3730 -0.0000
vn -0.9998 0.0175 -0.0050
vn -0.0000 -0.0000 1.0000
vn 0.8304 -0.5571 -0.0000
vn -0.0070 -0.0113 -0.9999
vn -0.0109 -0.0051 -0.9999
vn -0.0179 -0.0075 -0.9998
vn -0.0166 -0.0166 -0.9997
vn 0.0023 -0.0062 -1.0000
vn 0.0120 0.0035 -0.9999
vn -0.0194 0.0035 -0.9998
vt 0.324620 0.060842
vt 0.876350 0.000185
vt 0.000185 0.060842
vt 0.342803 0.632647
vt 0.324620 0.576533
vt 0.767536 0.377335
vt 0.000185 0.576533
vt 0.686396 0.822299
vt 0.324620 0.426146
vt 0.661221 0.270971
vt 0.324620 0.365171
vt 0.661218 0.215439
vt 0.324620 0.405821
vt 0.651060 0.253368
vt 0.324620 0.385496
vt 0.651059 0.233043
vt 0.000185 0.365171
vt 0.647131 0.632647
vt 0.000185 0.426146
vt 0.686396 0.671912
vt 0.000185 0.385496
vt 0.666764 0.637907
vt 0.000185 0.405821
vt 0.681136 0.652279
vt 0.701366 0.632647
vt 0.650058 0.999815
vt 0.701366 0.957081
vt 0.918713 0.477221
vt 0.000185 0.014785
vt 0.325623 0.675380
vt 0.324620 0.014785
vt 0.918734 0.018209
vt 0.327489 0.316232
vt 0.639734 0.685704
vt 0.686767 0.632647
vt 0.325623 0.002096
vt 0.635458 0.999815
vt 0.650668 0.316231
vt 0.701307 0.247725
vt 0.688308 0.957715
vt 0.650689 0.000185
vt 0.927962 0.467980
vt 0.325623 0.630366
vt 0.000185 0.000185
vt 0.325623 0.689980
vt 0.650689 0.632277
vt 0.325253 0.001726
vt 0.927962 0.027470
vt 0.828803 0.632647
vt 0.000185 0.636873
vt 0.652781 0.872408
vt 0.828803 0.957081
vt 0.324620 0.636873
vt 0.826735 0.389017
vt 0.326380 0.129164
vt 0.637596 0.872762
vt 0.650503 0.128210
vt 0.835842 0.379074
s 1
usemtl Material
f 4/7/1 3/5/1 5/9/2 10/19/2
f 9/17/3 11/21/4 8/15/4 6/11/3
f 11/21/4 12/23/5 7/13/5 8/15/4
f 12/23/5 10/19/2 5/9/2 7/13/5
f 9/17/3 6/11/3 1/1/6 2/3/6
s 0
f 17/33/7 21/43/7 22/46/7 19/38/7
f 25/55/8 17/33/8 19/38/8 26/57/8
f 16/31/9 22/47/9 21/44/9 15/29/9
s 1
f 23/49/10 13/25/10 14/27/10 24/52/10
s 0
f 13/25/11 18/35/11 20/40/11 14/27/11
s 1
f 2/3/12 1/1/12 16/31/12 15/29/12
s 0
f 18/36/13 25/55/13 26/57/13 20/41/13
s 1
f 9/18/14 17/34/14 10/20/14 12/24/14 11/22/14
f 9/18/14 2/4/14 15/30/14 21/45/14 17/34/14
f 4/7/15 23/50/15 24/53/15 3/5/15
f 6/12/16 8/16/19 7/14/19 5/10/18 19/39/17
f 1/2/20 6/12/16 19/39/17 22/48/20 16/32/20
f 4/8/14 10/20/14 17/34/14 25/56/14 23/51/14
f 13/26/14 23/51/14 25/56/14 18/37/14
s 0
f 20/42/21 26/58/21 24/54/21 14/28/21
s 1
f 5/10/18 3/6/22 24/54/22 26/58/22 19/39/17
